/* XPM */
static char *puppycoin64[] = {
/* columns rows colors chars-per-pixel */
"64 64 256 2 ",
"   c #150C000A1C39",
".  c #1B67010B1C82",
"X  c #1D4C09451F36",
"o  c #284E06471BFD",
"O  c #351E087119C2",
"+  c #38E913411BDE",
"@  c #2ECB11D31D23",
"#  c #16D90819276D",
"$  c #1186096B3410",
"%  c #125E13992F95",
"&  c #2798099F22ED",
"*  c #353B16342719",
"=  c #2BC218B6358D",
"-  c #2FCF17442DEB",
";  c #10E532AB3AB3",
":  c #30F7264A3416",
">  c #46C107FB1808",
",  c #46D918481916",
"<  c #5837199617B2",
"1  c #552A0802144D",
"2  c #65E81A7216E8",
"3  c #6DD60A6B11C0",
"4  c #56D126591898",
"5  c #4BD024521B4C",
"6  c #67AB26CB1563",
"7  c #734736681444",
"8  c #7197327016B9",
"9  c #4F2610A92464",
"0  c #6DE811932658",
"q  c #51C62EBF2D5A",
"w  c #6DE1372C2C12",
"e  c #0BFD45E03E5A",
"r  c #73B64B4332EB",
"t  c #71BE4D902587",
"y  c #0FF8178E4CD1",
"u  c #0CCF2E4D53C0",
"i  c #324A2BB94B91",
"p  c #0BD42F476C4D",
"a  c #1F17231266A7",
"s  c #45FB34064FC1",
"d  c #70FE31B77465",
"f  c #53AC307A65FD",
"g  c #0DDF49FE4B1A",
"h  c #24A5480E558D",
"j  c #152B6F2C50D2",
"k  c #11924E0E7661",
"l  c #13636D8E6866",
"z  c #2C985FA66F5D",
"x  c #55DA4CC25979",
"c  c #6AA753A65051",
"v  c #725B6B77738D",
"b  c #65225FB66216",
"n  c #975C0A8D0716",
"m  c #8DC211700CF2",
"M  c #A78C17A108C6",
"N  c #A8DE13F70FF6",
"B  c #890C37CC155C",
"V  c #91972E3D131C",
"C  c #ABC0238C0A74",
"Z  c #B4F0287A092B",
"A  c #B9B6360908DB",
"S  c #ABDE36F11138",
"D  c #965D15C523E3",
"F  c #923F0E292862",
"G  c #A71E18483871",
"H  c #B049106F3223",
"J  c #94F832452773",
"K  c #B14532DD3132",
"L  c #C4033CA808EA",
"P  c #C51B14943A14",
"I  c #C4570BFD38F7",
"U  c #D15C35693827",
"Y  c #91084D1311A7",
"T  c #B9B446020A72",
"R  c #AEB353940FBE",
"E  c #B5266A9E10E3",
"W  c #94825073312B",
"Q  c #B38550212E17",
"!  c #942B666A2E26",
"~  c #AD1070563806",
"^  c #C84E48480763",
"/  c #CC43561A06DE",
"(  c #D612592702E5",
")  c #CEA85216162F",
"_  c #C9A3672A07EB",
"`  c #DA39672B0503",
"'  c #D5026F121238",
"]  c #E3A36CB203FF",
"[  c #E7CD770E051A",
"{  c #E5FB730715CC",
"}  c #CC4952E02D6F",
"|  c #D85368E428BE",
" . c #DE0974EE3840",
".. c #D2F9710F2DCD",
"X. c #E45A792D367A",
"o. c #E2DC721B3020",
"O. c #E4AB54F12E4F",
"+. c #B71E12014339",
"@. c #980329BA5266",
"#. c #AFF12CD24AFF",
"$. c #90E8292B67BD",
"%. c #ADE22B4D65A6",
"&. c #D28C16794A22",
"*. c #E9F11C535664",
"=. c #E1AA12EF4B23",
"-. c #C5A827E15724",
";. c #D90125F8567D",
":. c #D4232EEB4A84",
">. c #E9CE252B57B6",
",. c #FB1E37235B5C",
"<. c #ED3C31724E3F",
"1. c #D479391D68FC",
"2. c #F3843380655A",
"3. c #8F6F565E4D1F",
"4. c #A72948FD498A",
"5. c #AC2D58A550E8",
"6. c #8FC6711F50AF",
"7. c #B3E169B854D9",
"8. c #B2BD72F35289",
"9. c #B47F479E7596",
"0. c #8EDB79196F23",
"q. c #9D355D9F676A",
"w. c #D03A4E964B40",
"e. c #E72648A34ADA",
"r. c #EDC650D6544E",
"t. c #CC8279BC4EE4",
"y. c #E68E6F94461B",
"u. c #F9614D6964FE",
"i. c #FD6C6D056A0D",
"p. c #CF4841CC6C3A",
"a. c #15E5883E5B2D",
"s. c #17DF96216EDA",
"d. c #2A1D8C2076A7",
"f. c #2AA6ABE16FB5",
"g. c #1C30A39F705A",
"h. c #542DB1DB679A",
"j. c #6A84A68366C2",
"k. c #65CCCD286ABC",
"l. c #B9BD86A5359B",
"z. c #EC9184E305E9",
"x. c #F36989F704BC",
"c. c #FB069BE70129",
"v. c #F97496C70535",
"b. c #FB6A96DD1559",
"n. c #EAC58E571173",
"m. c #FB9CA34E01EE",
"M. c #FB57AB2304BD",
"N. c #FB44B53507CD",
"B. c #FC3EB83017D5",
"V. c #F3D0A61A154E",
"C. c #D12A8FEB2D93",
"Z. c #E4F491752CFB",
"A. c #E7BB88EB37AA",
"S. c #E5AE93903296",
"D. c #E71E98473962",
"F. c #E6B58BBE2B5F",
"G. c #F0FEAE9C2FED",
"H. c #D96E8EF8179E",
"J. c #FC29C478059F",
"K. c #FDDECF741053",
"L. c #FA45CF182E9E",
"P. c #B18888E54D70",
"I. c #954782F37539",
"U. c #B058968F717C",
"Y. c #B24BAE5B6E2E",
"T. c #A3DCB1575E70",
"R. c #D85A942C4C3F",
"E. c #C7C3873959B1",
"W. c #D6AF968D5427",
"Q. c #CDC892CF4990",
"!. c #E531875742F8",
"~. c #E47C98ED447D",
"^. c #D7F8AF145572",
"/. c #EAE2A88D4929",
"(. c #F979BB2047DE",
"). c #EA04B7585812",
"_. c #EBF7B0DE54BD",
"`. c #C82FB2F96C1D",
"'. c #E5F89A1E6DB7",
"]. c #F3AAC83F59D9",
"[. c #F885D7115B5F",
"{. c #F5ACCAD54E3C",
"}. c #D1D9C7CB75A1",
"|. c #F9DEDB696530",
" X c #F28DCF2E6E1B",
".X c #F9A7E6E36A06",
"XX c #FB27E975782A",
"oX c #FD8CF6AC7915",
"OX c #FCA0F32F6D60",
"+X c #EC2CD54059B1",
"@X c #91B6C8F46BE3",
"#X c #0B7537638C4B",
"$X c #4BAE392684DD",
"%X c #0B194F188ED7",
"&X c #317E49569241",
"*X c #1807744B8CB6",
"=X c #25A3752F8EBD",
"-X c #0F975499AF48",
";X c #255E504BA41A",
":X c #0EE76FD7B4EA",
">X c #2F1D6F0EACCA",
",X c #5A47666E8EA9",
"<X c #0C447957CDB8",
"1X c #96385B548DA5",
"2X c #A600560C89E3",
"3X c #980E65C6970E",
"4X c #291C88E19484",
"5X c #2F5AB2BE85B9",
"6X c #291D8CDAAB6E",
"7X c #2CBCAC72B32A",
"8X c #11379D88A433",
"9X c #762592D3B692",
"0X c #654EA36FA09C",
"qX c #2520CF7196CA",
"wX c #2205EA3EA571",
"eX c #5C67C479868C",
"rX c #17AA946FDC35",
"tX c #117D8AD1D694",
"yX c #23F59199CD49",
"uX c #156AABD0CEC3",
"iX c #2C70A926C8AC",
"pX c #17DC98D4E52B",
"aX c #08C48F24E7B4",
"sX c #17D8A54FE927",
"dX c #18F7B08CE833",
"fX c #20EBBD4EE7BB",
"gX c #617CB447D20E",
"hX c #2808CD81D4A3",
"jX c #2C51EBBBEEEA",
"kX c #27F0D641E7B9",
"lX c #724DCD5ACD96",
"zX c #5501D9E7EB23",
"xX c #523BE88FED67",
"cX c #5EC9D62ADEAA",
"vX c #97A591289282",
"bX c #B235A73E9272",
"nX c #B1C7B220ACCE",
"mX c #9B35A260A540",
"MX c #D110B12D92EA",
"NX c #AA68D0A9B08E",
"BX c #F331D83B8C92",
"VX c #FE57FCAF8D43",
"CX c #FCF1F7C08503",
"ZX c #FEBFFE2293BC",
"AX c #FD49FA37992C",
"SX c #F528E93189CF",
"DX c #D319CD2EAE33",
"FX c #E984D904AD8C",
"GX c #FD94FABDA68B",
"HX c #EE3AEEB8B363",
"JX c #D0D3DA84A09F",
"KX c #85D2D1C1C932",
"LX c #98B2E23ED109",
"PX c #F9F1FADDD7AF",
"IX c #DD8FDED7CEA6",
"UX c None",
/* pixels */
"UXUXUXUXUXUXUXUXUXUXUXUXUXUXUXUXUXUXUXUXUXUXUXUXUXUXUXUXUXUXUXUXUXUXUXUXUXUXUXUXUXUXUXUXUXUXUXUXUXUXUXUXUXUXUXUXUXUXUXUXUXUXUXUX",
"UXUXUXUXUXUXUXUXUXUXUXUXUXUXUXUXUXUXUXUXUXUXUXUXUXUXUXUXUXUXUXUXUXUXUXUXUXUXUXUXUXUXUXUXUXUXUXUXUXUXUXUXUXUXUXUXUXUXUXUXUXUXUXUX",
"UXUXUXUXUXUXUXUXUXUXUXUXUXUXUXUXUXUXUXUXUXUXUXUXUXUXUXUXUXUXUXUXUXUXUXUXUXUXUXUXUXUXUXUXUXUXUXUXUXUXUXUXUXUXUXUXUXUXUXUXUXUXUXUX",
"UXUXUXUXUXUXUXUXUXUXUXUXUXUXUXUXUXUXUXUXUXUXUXUXUXUXUXUXGXAXZXVXZXZXAXAXUXUXUXUXUXUXUXUXUXUXUXUXUXUXUXUXUXUXUXUXUXUXUXUXUXUXUXUX",
"UXUXUXUXUXUXUXUXUXUXUXUXUXUXUXUXUXUXUXUXUXUXUXUXZXoXOXOXoXOXOX.X.X.XOXoXoXoXoXVXUXUXUXUXUXUXUXUXUXUXUXUXUXUXUXUXUXUXUXUXUXUXUXUX",
"UXUXUXUXUXUXUXUXUXUXUXUXUXUXUXUXUXUXUXUXUXAXoXOX.X+X^.8.~ W J J J J W W ~ ^.)..XOXOXCXUXUXUXUXUXUXUXUXUXUXUXUXUXUXUXUXUXUXUXUXUX",
"UXUXUXUXUXUXUXUXUXUXUXUXUXUXUXUXUXUXUXAXoX.X].P.W D D F Q P P } w.P H } G D J J 8.^.|.OXoXUXUXUXUXUXUXUXUXUXUXUXUXUXUXUXUXUXUXUX",
"UXUXUXUXUXUXUXUXUXUXUXUXUXUXUXUXUXAXOX.X^.Q J D H O.e.<.A.r.,.r.y.,.u.A.e.<.y.H F D W Q.|..XSXUXUXUXUXUXUXUXUXUXUXUXUXUXUXUXUXUX",
"UXUXUXUXUXUXUXUXUXUXUXUXUXUXUXGXXX.X).! D H } r.,.r.u.p.1.2X3X3X3X1X2X9.p.u.r.2.e.o.H D J Q..X.XSXUXUXUXUXUXUXUXUXUXUXUXUXUXUXUX",
"UXUXUXUXUXUXUXUXUXUXUXUXUXUXAX.X+X~ D K w.>.r.1.9.2X9X9XcXzXzXxXxXxXzXcXgX9X3X2X1.r.,.<.} D W ]..XXXUXUXUXUXUXUXUXUXUXUXUXUXUXUX",
"UXUXUXUXUXUXUXUXUXUXUXUXUXCX|.).W H I y.y.1.9.9XgXxXkXfXuXuX8XeXeX8X7XuXhXkXxXcX9X1X1.r.~.:.H J Q.[.|.UXUXUXUXUXUXUXUXUXUXUXUXUX",
"UXUXUXUXUXUXUXUXUXUXUXUXXX[.Q.J K w.-.-.9.9XzXjXhX7X8X=Xj.5XqXT.^.qX8Xh.d.8X8XhXjXkXgX1X#.#.:.K D ~ [..XUXUXUXUXUXUXUXUXUXUXUXUX",
"UXUXUXUXUXUXUXUXUXUXUXoX[.l.V G 0 : q - i 4XuX8Xj.@XwXqXk.f.wXk.h.wXqXj.h.wXeXT.4XuX7Xa : : * 9 F J Q +X|.UXUXUXUXUXUXUXUXUXUXUX",
"UXUXUXUXUXUXUXUXUXUXXX[.Q.D F * x bXDXDX0.: u qXh.j.qXg.u h : e : ; h ; a.qXk.j.qXj - v MXFXDXv - 0 F ~  X|.UXUXUXUXUXUXUXUXUXUX",
"UXUXUXUXUXUXUXUXUXSX[.Q.D 1 - vXFX{.K.B.(.E.: j 5Xh : i x 0.vXnXnXvXI.b s : h f.s.= 0._.B.B.L.SXnXs > 0 ~ ].XXUXUXUXUXUXUXUXUXUX",
"UXUXUXUXUXUXUXUXSX[.^.0 O i nX XB.B.' L / { 8.- : c U.}.[..XHXPXPXPXCX[.+XY.v : % 3.o.( A _ V.N.].DXx o 1 Q.[.XXUXUXUXUXUXUXUXUX",
"UXUXUXUXUXUXUXUX[.].w o x DX[.N.B.C.3 3 3 Z / P.Y.L.K.K.K.oXGXGXGXGXZXL.K.K.L.^.8.| L m 3 3 W B.m.L.FX,X& < ^.|.UXUXUXUXUXUXUXUX",
"UXUXUXUXUXUXUX.X+X3.o v FX(.M.M.G., . . O V S.L.J.J.J.J.J.OXZXVXZXZXoXK.J.J.J.J.L.D.R O     O C.B.c.B.BXmX- w ).|.UXUXUXUXUXUXUX",
"UXUXUXUXUXUXUX{.! = vXFXG.c.v.B.~     o 7 n.M.M.N.N.N.N.N.N.{.CXVX.XB.N.J.N.N.N.M.M.V.R O     t G.x.v.V.BXnXi q ^.UXUXUXUXUXUXUX",
"UXUXUXUXUXUX].W 9 vXBXV.v.x.z.G.7   X B v.m.m.m.m.m.M.M.N.M.N.{..XN.M.N.M.N.m.m.m.m.m.c.R +   + G.v.x.v.b. XMXq q ).UXUXUXUXUXUX",
"UXUXUXUXUXUX~ @ 8./.b.x.z.z.n.G.+ o V ` ' Y Y Y E c.m.m.m.m.c.B.B.c.m.m.m.c.c.H.E Y Y l.H.S o o C.Z.[ [ x.x._.Q.: r UXUXUXUXUXUX",
"UXUXUXUXUX^.: t F.{ { ` [ z.n.l.o 1 T Y @ X @ @ @ 7 z.m.c.m.v.v.V.x.m.m.m.x.Y @   o o . 8 _ 8 o W V.[ [ [ ] { { ! @ P.UXUXUXUXUX",
"UXUXUXUXUX! + E ] ` ' | ` ] n.! o C B , Y E _ E Y 5 Y x.c.c.c.[ [ x.c.c.c.E , 7 R E E R 4 6 S > 4 G.[ ] ' O.( ( _ 4 r UXUXUXUXUX",
"UXUXUXUXUXq 6 ( ( L ) ) ` ` G.7 > T R _ ` R R E _ ` / ` v.c.c.[ ] c.c.c.[ / ` ] E R E _ [ R / 2 * D.] ` ) ) L ( / Y * UXUXUXUXUX",
"UXUXUXUXQ.@ B ^ ` A A T ( ` Z., 2 ( ` Y 9 - - - , Y ` ( [ c.c.v.v.c.c.[ ( ` R 4 @ - * O 7 ` ] V O C.{ ( / S A ( ^ S O 6.UXUXUXUX",
"UXUXUXUXP.@ C A / ( / ( ` ` C.@ V ( 7 + w x i a y $ 8 ` ( x.c.c.c.c.v.] ] R & y a a s c * < / T O ! { ( ( ( ( / L Z O r UXUXUXUX",
"UXUXUXUX~ o M Z ^ / / / / ' E O A Y + 3.f i z %X,XmXi B ` [ v.v.v.c.x.( R - i z %X%X&X,Xq.q 4 ^ > 7 H.( ( ( ( ^ A M 1 t UXUXUXUX",
"UXUXUXUXP.O M M L ^ ^ ^ ^ ' 7 > T + W d a j.T.h 0XIX&X: / ] v.v.v.v.[ ` 8 p v T.a p nXIXv 3.@ R 6 , { ( ^ ^ ^ A C M > t UXUXUXUX",
"UXUXUX).P.o m M M L L L L ' , 2 B 5 q.p b +X.X! = i a p S ( v.b.v.b.] / : x +X.X! y v vX#X3.r 6 V o E ^ ^ L A C n M O Y  XUXUXUX",
"UXUXUX).C.@ m n M M Z Z T E o V 6 r I.#Xa t E - $ $ y #XW ( { b.b.v.` R p a t E & y $ y #X,X6., S O Y / Z Z C M n M O ! [.UXUXUX",
"UXUXUX).G.5 < M n n M Z ^ 7 O S 6 6.vX-Xp - 4 s s # y %XB ( [ b.b.b.` T %X#X- 5 = x $ $ -X,XU.5 A 1 * / C M n n n m + C.[.UXUXUX",
"UXUXUX].{.7 O M n n n M S o > Z 7 v NXtX*X# & vXvX$ %X:XW  . XBXBX X~.R &X:X%   b DX= h rXgXbX5 T 3 # B Z n n m M 1 , Z.|.UXUXUX",
"UXUXUX_.{.Y o 8 M n n A 1 # 1 Z Y x DXlXNXh   = = b cX=X`.MXI.6.0.6.Y.MXv iXj.$ # = y NXlXNXj.8 A 3 o O C n 3 n C X 4 G.|.UXUXUX",
"UXUXUX^.{.W > o C C A 4 % % m N R q bXLXxXhX*Xz *XlXlXNXY.5 8.DXFX`.6 6.JXlXLX6Xz l 7XxXKXDXq R Z D + % , A C A , O W G.|.UXUXUX",
"UXUXUX_.L.8.m , + S 4   ; @ R S A Y q nXLXjXjXjXjXjXNXAXq 3 S ..t.Q n * JXJXzXjXjXjXjXcXNXc t ^ S | < ; % , S 2 O m W {.|.UXUXUX",
"UXUXUXW.(.R.G F O   # g g @ ..)...( Y q vXNXKXlXKXJXAXVXc o 3 m n 3 > * XXZXHXKXlXKXNXvXc B ^ ) ^.D.< u g % . & 3 N 7.{. XUXUXUX",
"UXUXUXUX(.W.#.H F $ #Xu g @ | ].OX XW...W 3.0.bXFXHXZXAXJXq   o O o * U.AXAXGXFXnXI.6.W ~ R.)..X|.A.< ; e p y F F +.t.(.UXUXUXUX",
"UXUXUXUX/._.#.:.D f :Xd.j O ) )..XoXAXAXAXGXHXGXAX}.AXZXAX XP.r 4 6.}.ZXAXZX}.SXGXGXGXAXAXAXVXXX{.o.< e f.tX#XH K #.E.(.UXUXUXUX",
"UXUXUXUX/./.4.F.o.d sX5Xa.# Y D.+XXXoXCXVXZXVX`.6.6.CXVXAXVXVX8.w SXZXZXVXZXY.c Y.SXZXZXCXCXXX[./.| O j f.fX$X} G.K /.(.UXUXUXUX",
"UXUXUXUX~.G.7.K U 1.pXiXg.; 2  ./.+X.XXXCXCXVXJXP.w ^.XXoXXXW.4 O 8. XXXXX}.W ! `.SXZXVXXX.X|.{.S.B % a.5XsX9.:.U 4./.].UXUXUXUX",
"UXUXUXUXUXG.E.+.;.2.>XfXh.g o R A./.].|..XXXoXVXAXc , W ! W 9   . O w W W 4 q SXVXCXCXXX|. X).D.' , ; g.iXyX1.>.H 8./.UXUXUXUXUX",
"UXUXUXUXUX~.~.#.<.r.$XsX6Xa.; * ..A./.{.[..X.XOXXXT.X     #     .     o     c CXoXXX|.[.]./.~...6 % j z dX$Xr.e.#.R.G.UXUXUXUXUX",
"UXUXUXUXUXD.D.8.} A.1.>XiXg.j % , '  .R./.].+X|..X+X*                 #   o P.XX|.|.].).~.A...B X g g.7XrX$.o.o.4.D./.UXUXUXUXUX",
"UXUXUXUXUXUXD.W.J +.>.d pX4Xa.g # 4 '  .A.~._.).].+Xr   # > 0 & o 0 9 o   * }.].)._.~.!.A.| B   ; a.4XfX&X>.&.G t.G.UXUXUXUXUXUX",
"UXUXUXUXUXUXD.D.8.&.>.1.>XsXs.a.g % , R o.y.!.R./._.l.& 0 <.,.H F :.<.H o r _./.~.!. . .) 4 # e a.g.iX<X%.>.&.4.D./.UXUXUXUXUXUX",
"UXUXUXUXUXUXUXD.R.#.o.A.$.<XuXs.a.p $ o 8 ) o. .y.!.!.w H i.'.r.e.i.MX<.0 ..!.X.X.X.| Y + % u l s.8XaXd y.Z.+.E.D.UXUXUXUXUXUXUX",
"UXUXUXUXUXUXUX/.S.8.K U ;.$XpX6X*XtX%Xu # O 7 } |  .X.Q <.i.i.i.i.i.i.u.K  . .o.} V < X y %X:X:X=XpX;X-.U K 5.D.(.UXUXUXUXUXUXUX",
"UXUXUXUXUXUXUXUXD.R.4.+.*.;.&XsXtXtX6X:Xp u % o < V Q Q <.u.u.u.u.u.u.r.U Q V 6 + # y p %X6XuXtXsX:X%.>.&.K R.D.UXUXUXUXUXUXUXUX",
"UXUXUXUXUXUXUXUX/.Z.Q.#.O.y.%.;XpXrXyXtX=Xz %Xu y $ X o K ,.,.,.,.,.,.} > o & % u k z z tXyXyXsX:X%.e.X.#.E.D.).UXUXUXUXUXUXUXUX",
"UXUXUXUXUXUXUXUXUXD.D.E.Q } *.-.;XpXsXtXh.k.:X:X%Xk p % > } <.<.*.<.e.2 # p %X%X:X:Xh.k.:XpXsX-X$.*.U Q 8.D./.UXUXUXUXUXUXUXUXUX",
"UXUXUXUXUXUXUXUXUXUXD.D.U.+.&.r.-.$XtXpXd.l pXaX7X7X<Xk $ O J } O.K < # p :X6X7XaXaX*Xd.yXpX;X%.e.<.H 7.D.D.UXUXUXUXUXUXUXUXUXUX",
"UXUXUXUXUXUXUXUXUXUXUX~.A.P.K ..;.;.d -XrXyXtXtXT.@XaX-Xu $ # & O o # y %XaXeX^.:XaXtXpX<X$X#.*.| Q 7.~.D.UXUXUXUXUXUXUXUXUXUXUX",
"UXUXUXUXUXUXUXUXUXUXUXUXD.S.P.#.I e.<.%.&X<XpXyXv ,XaX:Xa.u p u u u u j *XaX>Xv yXpXaX;Xd =.e.&.G 7.D.D.UXUXUXUXUXUXUXUXUXUXUXUX",
"UXUXUXUXUXUXUXUXUXUXUXUXUX~.S.E.4.Q U *.*.$.&X<XpXpXpX:Xd.=X;Xk z #X%Xd.>XrXrXpXtX;Xd -.>.;.} K 8.R.D.UXUXUXUXUXUXUXUXUXUXUXUXUX",
"UXUXUXUXUXUXUXUXUXUXUXUXUXUX~.S.R.8.+.H ;.=.;.@.f ;X<X<XtXpXpXyXyXrXaXaXtX<X-X$X$.;.*.>.:.G 4.W.D.D.UXUXUXUXUXUXUXUXUXUXUXUXUXUX",
"UXUXUXUXUXUXUXUXUXUXUXUXUXUXUX^.D.R.E.4.G &.o.e.*.-.$.d f &X;X;X;X;X&X$Xd $.#.=.<. .&.H #.8.~.S./.UXUXUXUXUXUXUXUXUXUXUXUXUXUXUX",
"UXUXUXUXUXUXUXUXUXUXUXUXUXUXUXUXUX/.S.~.E.4.K G P A.<.>.e.;.;.-.:.;.;.e.<.*.A.<.I K @.P.W.S.D.UXUXUXUXUXUXUXUXUXUXUXUXUXUXUXUXUX",
"UXUXUXUXUXUXUXUXUXUXUXUXUXUXUXUXUXUXUX~.S.R.E.7.#.Q H P F.:.=.O.A.=.=.H.U H Q K 5.E.~.S.S.UXUXUXUXUXUXUXUXUXUXUXUXUXUXUXUXUXUXUX",
"UXUXUXUXUXUXUXUXUXUXUXUXUXUXUXUXUXUXUXUXUX/.S.D.~.W.8.5.4.#.#.K K #.G 4.5.7.E.R.D.A.D.UXUXUXUXUXUXUXUXUXUXUXUXUXUXUXUXUXUXUXUXUX",
"UXUXUXUXUXUXUXUXUXUXUXUXUXUXUXUXUXUXUXUXUXUXUXUXD.S.S.S.D.R.R.Q.Q.W.Q.R.D.Z.F.F.UXUXUXUXUXUXUXUXUXUXUXUXUXUXUXUXUXUXUXUXUXUXUXUX",
"UXUXUXUXUXUXUXUXUXUXUXUXUXUXUXUXUXUXUXUXUXUXUXUXUXUXUXUXD.S.Z.Z.Z.Z.Z.S.UXUXUXUXUXUXUXUXUXUXUXUXUXUXUXUXUXUXUXUXUXUXUXUXUXUXUXUX",
"UXUXUXUXUXUXUXUXUXUXUXUXUXUXUXUXUXUXUXUXUXUXUXUXUXUXUXUXUXUXUXUXUXUXUXUXUXUXUXUXUXUXUXUXUXUXUXUXUXUXUXUXUXUXUXUXUXUXUXUXUXUXUXUX",
"UXUXUXUXUXUXUXUXUXUXUXUXUXUXUXUXUXUXUXUXUXUXUXUXUXUXUXUXUXUXUXUXUXUXUXUXUXUXUXUXUXUXUXUXUXUXUXUXUXUXUXUXUXUXUXUXUXUXUXUXUXUXUXUX",
"UXUXUXUXUXUXUXUXUXUXUXUXUXUXUXUXUXUXUXUXUXUXUXUXUXUXUXUXUXUXUXUXUXUXUXUXUXUXUXUXUXUXUXUXUXUXUXUXUXUXUXUXUXUXUXUXUXUXUXUXUXUXUXUX"
};
