/* XPM */
static char *puppycoin32[] = {
/* columns rows colors chars-per-pixel */
"32 32 227 2 ",
"   c #2878028D1E89",
".  c #358711391F4A",
"X  c #360B028A20DE",
"o  c #2C661E4A35FA",
"O  c #2D4114DF28F7",
"+  c #23D62598340F",
"@  c #33A12DD92E41",
"#  c #4A0617041BCD",
"$  c #54FB13571723",
"%  c #4A5E08A01340",
"&  c #7508175B0F37",
"*  c #70D5168D16BB",
"=  c #7CAE0DB80C8B",
"-  c #530B202816D9",
";  c #6A65232C1502",
":  c #7822380B17F6",
">  c #7AAE27C713F9",
",  c #7F9E1E152506",
"<  c #552C2B6F2B3E",
"1  c #47F235B028F2",
"2  c #5AE333A127EA",
"3  c #54EA2DC134F2",
"4  c #51BA33613889",
"5  c #44412BA62DAC",
"6  c #65042A182707",
"7  c #678034902521",
"8  c #70BA2E5D2EA4",
"9  c #1859491D3FB8",
"0  c #28A64CFE39D6",
"q  c #7BE342871728",
"w  c #729C48A62B62",
"e  c #692343E234BF",
"r  c #135F371A5420",
"t  c #26CC24F04567",
"y  c #32832EFD4D45",
"u  c #1507347767C9",
"i  c #64E419EA452E",
"p  c #6259367942E0",
"a  c #56991EB84F56",
"s  c #101C4F674C4D",
"d  c #221C5F244924",
"f  c #35887FBD5E1F",
"g  c #118D4FAE7940",
"h  c #24CC4EAB70F1",
"j  c #10FA65F47AA9",
"k  c #197C716F626E",
"l  c #56DC4C014BBB",
"z  c #71ED4FC04FF6",
"x  c #49EF6DA05A95",
"c  c #767C6B605394",
"v  c #4E4C4D836D52",
"b  c #544D668D6A06",
"n  c #48C9652B777B",
"m  c #97850CAD07BF",
"M  c #88C21D280DD6",
"N  c #95B417750986",
"B  c #A6E81CEA093F",
"V  c #905D30091001",
"C  c #B1062D42097C",
"Z  c #8DC137772827",
"A  c #BC4D316C3D30",
"S  c #A7F52E463431",
"D  c #C5CB351B3B58",
"F  c #9B4F4B260D21",
"G  c #94D4482C0D71",
"H  c #882A4392140E",
"J  c #96824E811404",
"K  c #B08551B1138E",
"L  c #AC076E1616E4",
"P  c #88A2552A2839",
"I  c #8CDC54663022",
"U  c #BDD344AA3511",
"Y  c #B0C354212AC9",
"T  c #8638670337BA",
"R  c #A80C6DA226CF",
"E  c #BBD468723AA5",
"W  c #AC837310377E",
"Q  c #B9F36F5B2C46",
"!  c #CC7F4E2D049E",
"~  c #C78B4479068A",
"^  c #D51C56650808",
"/  c #CD0959BD0EE3",
"(  c #D8C6692107E6",
")  c #CD676AA10AB6",
"_  c #E90377C9037E",
"`  c #E0C76D49071E",
"'  c #CB5945B33D22",
"]  c #C82A57CA3611",
"[  c #C6736CAB2ED7",
"{  c #DB167CC135F5",
"}  c #C7A876AE2FC0",
"|  c #B7E831544DE5",
" . c #990C3A727348",
".. c #877C3DA67B90",
"X. c #A9E336516776",
"o. c #CE353C6B43F0",
"O. c #C8A4381847C3",
"+. c #D14433EC44BE",
"@. c #C4F32CC0523B",
"#. c #CFB9300250B1",
"$. c #FE2037B1521D",
"%. c #844F5F985C01",
"&. c #BFC246BB464A",
"*. c #AC9643CE5C2D",
"=. c #8AEF65FF4AC5",
"-. c #8B61724D5B56",
";. c #A1137C7557D8",
":. c #A56B7E894FC7",
">. c #818541D27D94",
",. c #A050485766CC",
"<. c #94D7726E64B3",
"1. c #ABF5618275BF",
"2. c #C9F64649470A",
"3. c #C6C157BD4615",
"4. c #D67145125185",
"5. c #CD2A48A351E3",
"6. c #EF2050995BAA",
"7. c #C4AB6AAC4425",
"8. c #C658640A4322",
"9. c #CA2D772944C7",
"0. c #C52E57E076C9",
"q. c #FFB35CFD663F",
"w. c #17A189147B33",
"e. c #38B085156789",
"r. c #341F86CD7940",
"t. c #29C8A4E2782C",
"y. c #548ABA6E7B8E",
"u. c #9FC3858A3F54",
"i. c #BDAA86493747",
"p. c #D0CF851A151D",
"a. c #ED2E809F0875",
"s. c #F42F89B00467",
"d. c #FA2B97100356",
"f. c #EEA895911092",
"g. c #FA0DA5CB05CA",
"h. c #FBB4B1E20673",
"j. c #FA9FABFD1433",
"k. c #D57F87642A87",
"l. c #D8A7852B3880",
"z. c #DC0A90973FA1",
"x. c #E31A99C63D9A",
"c. c #E22F93E73CFE",
"v. c #E36C894D2E3A",
"b. c #E044B43E2B31",
"n. c #F349BBA02D4A",
"m. c #FD0ECC680FB5",
"M. c #AE868C804E24",
"N. c #9CE580DA6843",
"B. c #AC4998A26594",
"V. c #B5AA97146EFA",
"C. c #BA58AC3669F0",
"Z. c #878882BA52FE",
"A. c #CA0A84104337",
"S. c #D3A4866242CC",
"D. c #CC8493134C7C",
"F. c #DD7A95FB4400",
"G. c #CEAF9D2752D8",
"H. c #E3549D1342D1",
"J. c #E5B29A9F4960",
"K. c #E09498564FE6",
"L. c #D042A1295325",
"P. c #D67EB5345BD1",
"I. c #D320A9305427",
"U. c #EB59A6A34955",
"Y. c #E117BA685F98",
"T. c #D0DCAA9B6CE0",
"R. c #E0B7B84F676D",
"E. c #FEE8DAD2462F",
"W. c #F4AAC8665B08",
"Q. c #EECACB3752B2",
"!. c #FFE7E66A51F2",
"~. c #EB41D5676B51",
"^. c #F63BD748680C",
"/. c #E709D155753D",
"(. c #FB25E3036C92",
"). c #F875E572766D",
"_. c #FC12F36D7BEA",
"`. c #0D3154A08A56",
"'. c #0ECD670CA04D",
"]. c #379D6659AC84",
"[. c #368F6B72B12F",
"{. c #2A5B7881B8C5",
"}. c #338A7323B5B9",
"|. c #520F553E9172",
" X c #6D784C9D9131",
".X c #46507DCE8A2C",
"XX c #48D976D2AC97",
"oX c #682D796294AB",
"OX c #29EE7F42C8F1",
"+X c #A4CC73C2915B",
"@X c #8D3648608344",
"#X c #1DD2970C9768",
"$X c #13E2926A8C0F",
"%X c #133585CDBCDD",
"&X c #1DDB95ABA931",
"*X c #20C98E15AE82",
"=X c #39B1873BB392",
"-X c #2E629D8FB6D9",
";X c #2C1EB309AF11",
":X c #52DB9BA59D6C",
">X c #40EF82428E83",
",X c #7C6284319A7E",
"<X c #4E1987FCAAF1",
"1X c #771C9B6EB801",
"2X c #4D3EA874AA42",
"3X c #7023B123B196",
"4X c #4D8AC3AF95B6",
"5X c #18E89229D1AB",
"6X c #18D68BDCC663",
"7X c #224086CDD0BD",
"8X c #4725BCB1C58D",
"9X c #5201CE47CCFF",
"0X c #7C0CE170CE72",
"qX c #85C593AAB00F",
"wX c #90FEBEB2B289",
"eX c #C5B3BDAEA4D5",
"rX c #9047CA6ABD92",
"tX c #D4FFD2A29261",
"yX c #E382DF46961C",
"uX c #D3FBE9779F88",
"iX c #FCC2F61D841A",
"pX c #FCE0FC60957A",
"aX c #F1BBE7F48518",
"sX c #C7C6C081AAED",
"dX c #FFFBFF5DA0F7",
"fX c #897BE792CBE6",
"gX c None",
/* pixels */
"gXgXgXgXgXgXgXgXgXgXgXgXgXgXgXgXgXgXgXgXgXgXgXgXgXgXgXgXgXgXgXgX",
"gXgXgXgXgXgXgXgXgXgXgXgXgXgXgXgXgXgXgXgXgXgXgXgXgXgXgXgXgXgXgXgX",
"gXgXgXgXgXgXgXgXgXgXgXiX~.P.L.D.D.L.P.~._.gXgXgXgXgXgXgXgXgXgXgX",
"gXgXgXgXgXgXgXgXgX).P.7.U D 2.+.o.D D ' E I.~.gXgXgXgXgXgXgXgXgX",
"gXgXgXgXgXgXgXiXY.E D o.0.+XqX1X1XqXqX0.4.D E I.(.gXgXgXgXgXgXgX",
"gXgXgXgXgXgX(.D.S A 1.1X8X;X;X4X4X;X;X8X1X1.| S 9.^.gXgXgXgXgXgX",
"gXgXgXgXgX).A., %.-.b #Xy.t.e.e.e.f t.y.#Xn <.%.8 :.^.gXgXgXgXgX",
"gXgXgXgX(.A.3 N.Y.f.[ l x Z.B.eXsXC.-.x l Q k.n.V.6 W ^.gXgXgXgX",
"gXgXgXgXL.l V.n.} % V p.b.m.E.pXpX!.m.b.k.V % L n.G.z M.gXgXgXgX",
"gXgXgXM.%.T.g.f.2 # L g.h.h.h.E.!.h.h.g.h.p.- # v.f.T.c M.gXgXgX",
"gXgXgXw } a.a.p.- V H q F d.g.d.f.g.g.L q q G # } a.a.l.w gXgXgX",
"gXgXT J ( / ( R > F F F G ) d.d.s.d.` G F G F M J _ ^ ^ G e gXgX",
"gXgXw C ! ~ ( J V G 3 y < K a.d.d.s.K 2 t 3 Z K w ` ! ! C 7 gXgX",
"gXgXe N ~ ! / : V p b b oXz ( d.d._ 7 x `.+Xz : > / ^ ~ B 7 gXgX",
"gXgXP m B ~ K ; : v c T o u K d.s./ l :.5 h |.e ; K ~ B N : gXgX",
"gXgXR * m B > & T <Xu 4 y u &.U.U.Q h o l t <X=.& ; B m = P gXgX",
"gXgXi.$ N N . M P wX2Xh .X3X;.V.V.;.3X>Xh 2XrXT N . M N $ W gXgX",
"gXgXF., $ + + Q K -.3X9X0XuXe Z Z 8 tXfX9X3X-.K [ @ + $ * S.gXgX",
"gXgXF.A i j 0 l.^.R.T.tXyXpXT.2 2 B.pXyXtXT.R.^.U.@ j a S K.gXgX",
"gXgXU.] X.-Xd Y ^._.iXyX;./.aXM.=.)./.M.tXpX_.^.[ 0 ;X,.] U.gXgX",
"gXgXU.8.#.<Xj 1 l.Q.^._.T.5 2     < < B.).(.W.c.w k =X#.3.U.gXgX",
"gXgXgXS.' @X&Xd 7 { U.Q.Y.5   X X X O P.W.U.v.: 9 &X X' 9.gXgXgX",
"gXgXgXx.3.4.XX$Xs < Y { K.I | #.5.O.I K.S.] 7 r w.}.5.2.U.gXgXgX",
"gXgXgXgXz.D X.{.%X`.t 6 J Y 6.q.q.6.A J 8 + `.%X%X,.D S.gXgXgXgX",
"gXgXgXgXx.9.'  .OX5Xr.`.u + S $.$.| o r `.f 6X7X..' 9.U.gXgXgXgX",
"gXgXgXgXgXx.8.2.X.[.*X5X:X'.o 6 , o `.:X5X&X}. .o.8.H.gXgXgXgXgX",
"gXgXgXgXgXgXH.9.O.@. X}.=X6Xj g u `.OX{.OX X| O.8.x.gXgXgXgXgXgX",
"gXgXgXgXgXgXgXH.S.U @.@...|.].[.[.[.|...X.@.2.9.U.gXgXgXgXgXgXgX",
"gXgXgXgXgXgXgXgXgXJ.9.3.' D O.#.| O.+.2.2.9.z.gXgXgXgXgXgXgXgXgX",
"gXgXgXgXgXgXgXgXgXgXgXJ.S.9.7.8.[ 7.9.S.H.gXgXgXgXgXgXgXgXgXgXgX",
"gXgXgXgXgXgXgXgXgXgXgXgXgXgXgXgXgXgXgXgXgXgXgXgXgXgXgXgXgXgXgXgX",
"gXgXgXgXgXgXgXgXgXgXgXgXgXgXgXgXgXgXgXgXgXgXgXgXgXgXgXgXgXgXgXgX"
};
