/* XPM */
static char *xcientos64[] = {
/* columns rows colors chars-per-pixel */
"64 64 180 2 ",
"   c #F86DED40072D",
".  c #FC17ED0A031D",
"X  c #FE3DECE5012E",
"o  c #FEFFECEE0009",
"O  c #FFCBECF20002",
"+  c #FEC4ECF800A1",
"@  c #FCA2ECFD02EE",
"#  c #F9ABED0F057C",
"$  c #FB0CECFC044E",
"%  c #F4D1EB790AD3",
"&  c #F44AED2E0ABF",
"*  c #F5F7ED2B08FF",
"=  c #F6BDED380871",
"-  c #EC11EAAB1370",
";  c #EBA9EE07136E",
":  c #EA11EA371594",
">  c #E927EE1B15F7",
",  c #E020E8232004",
"<  c #D74DE74B2930",
"1  c #AF26F23C4F38",
"2  c #ABDFF19C52DF",
"3  c #A083F2C55E02",
"4  c #9052F4446DF7",
"5  c #8A8AF472742C",
"6  c #758AF5948884",
"7  c #6303F0B39B8E",
"8  c #4995C8B7BB98",
"9  c #5A7CEC9BA515",
"0  c #4A92EF8EB425",
"q  c #160E8906FA16",
"w  c #160B89ACFA54",
"e  c #15F58A8BFA86",
"r  c #15DF8BA7FAE0",
"t  c #15718D78FADB",
"y  c #15A08CA0FAD7",
"u  c #15338E74FAEC",
"i  c #15148F89FAD6",
"p  c #14DD919EFA78",
"a  c #14E790C4FAAB",
"s  c #14D091AFFA86",
"d  c #148592ACFAAE",
"f  c #14A69232FAB4",
"g  c #143D93C0FACC",
"h  c #138797BAFAFA",
"j  c #1418948BFAE3",
"k  c #1407955AFADA",
"l  c #13C39685FAF0",
"z  c #139C9798FAFB",
"x  c #134E98B7FAFA",
"c  c #131B99C8FAFB",
"v  c #12F49AB3FAFA",
"b  c #12C29BC6FAFC",
"n  c #127A9D04FAFB",
"m  c #12A79C1CFAFB",
"M  c #124F9DB4FAFA",
"N  c #12009EE7FAFA",
"B  c #11DB9FAFFAFA",
"V  c #0F85AD17FAFC",
"C  c #0F61AE0CFAFA",
"Z  c #0F32AEE9FAFA",
"A  c #0F01AFA6FAF9",
"S  c #118DA0ECFAFA",
"D  c #1162A217FAFA",
"F  c #11B3A08DFAFA",
"G  c #1149A2AFFAFA",
"H  c #1119A3BDFAFA",
"J  c #1104A480FAFA",
"K  c #10D4A5E4FAFC",
"L  c #10C0A695FAFA",
"P  c #1081A7EDFAFA",
"I  c #1095A7A9FAFA",
"U  c #1067A833FAFA",
"Y  c #1024A983FAFC",
"T  c #0FF0AAEDFAFB",
"R  c #0FD2ABC4FAFA",
"E  c #0FB0ACE0FAFA",
"W  c #0EB8B101FAFA",
"Q  c #0E7BB219FAF9",
"!  c #0EA8B13FFAFA",
"~  c #0E42B2D0FAFA",
"^  c #0E1EB39BFAFA",
"/  c #0D8AB61FFAFA",
"(  c #0DDAB497FAFA",
")  c #0D9AB5DBFAFB",
"_  c #0D6FB6A5FAF9",
"`  c #0D3EB7A2FAFB",
"'  c #0D92B6AEFAF6",
"]  c #0D0FB8F2FAFA",
"[  c #0CE0B9EEFAFA",
"{  c #0CB8BABAFAFA",
"}  c #0C83BC12FAFA",
"|  c #0C93BBBEFAFA",
" . c #0C5BBC8FFAFB",
".. c #0C2ABD92FAF8",
"X. c #0BFCBEDBFAFB",
"o. c #0BBCBFDCFB0C",
"O. c #0AA5BAEEFD0B",
"+. c #2A68FB48D391",
"@. c #210FFC3BDCED",
"#. c #0B86C11AFAFD",
"$. c #0B3EC20EFAFD",
"%. c #0B30C2FAFB13",
"&. c #0B26C37AFB25",
"*. c #0B98C12FFB01",
"=. c #0B00C508FB4C",
"-. c #0ADFC584FB69",
";. c #0AA0C6ADFBA9",
":. c #0A73C7E1FBD2",
">. c #0A96C76DFB94",
",. c #0A47C8DFFBC8",
"<. c #0A14C972FBD0",
"1. c #0977CC27FBFB",
"2. c #09C1CB20FBF6",
"3. c #09A9CB87FBEA",
"4. c #095FCC75FBFB",
"5. c #090DCDC2FBF9",
"6. c #08F0CE8AFBF4",
"7. c #0888D03CFBE7",
"8. c #077CD69EFBF9",
"9. c #0744D7A7FBF9",
"0. c #0857D0C6FBF6",
"q. c #0843D1B5FBF8",
"w. c #0817D2DCFBF9",
"e. c #07F2D405FBFB",
"r. c #07CBD51AFBF8",
"t. c #07B4D56BFBF8",
"y. c #0792D65DFBFB",
"u. c #06F1D929FBFB",
"i. c #06C6DA0AFBFB",
"p. c #0683DACAFBFB",
"a. c #0698DA9AFBF3",
"s. c #0646DC14FBFB",
"d. c #05FDDD09FBFB",
"f. c #05C0DE1FFBFB",
"g. c #0547DFFCFBFB",
"h. c #05AADEB7FBF3",
"j. c #0586DF65FBFB",
"k. c #12C9FDA5EA8F",
"l. c #0543E0C6FBFB",
"z. c #050EE1F6FBF7",
"x. c #04E8E2B8FBFA",
"c. c #04C7E3B4FBFB",
"v. c #0469E555FBFB",
"b. c #048DE4C6FBFC",
"n. c #041EE711FBF7",
"m. c #04ACE69EFBB6",
"M. c #03F9E7EBFBF9",
"N. c #0367EAFBFBF7",
"B. c #0337EBC5FBFA",
"V. c #03D5E911FBF5",
"C. c #041CE98AFBB4",
"Z. c #030DECFEFBFB",
"A. c #02EEEDC4FBFB",
"S. c #02F4EEB8FBF2",
"D. c #0280F04AFBFB",
"F. c #02A6F032FBF8",
"G. c #0008E96AFFD0",
"H. c #0001EC4AFF89",
"J. c #0000EF77FFE5",
"K. c #0267F120FBFC",
"L. c #0214F267FBFD",
"P. c #0216F285FBFB",
"I. c #01DCF3A6FBFB",
"U. c #017CF504FC00",
"Y. c #014BF603FBFB",
"T. c #0191F4C9FBFE",
"R. c #011EF6DFFBFB",
"E. c #00DBF823FBFB",
"W. c #00BFF921FBFF",
"Q. c #00A5FA08FC16",
"!. c #005EFADDFBFD",
"~. c #0035FBADFBFA",
"^. c #0029FCD6FC1C",
"/. c #0033FE1DFC29",
"(. c #000DFEE9FC0B",
"). c #0000FEFBFD20",
"_. c #0000FF09FD96",
"`. c #0000FEC1FEF6",
"'. c #0000FF26FFFF",
"]. c None",
/* pixels */
"].].].].].].].].].].].].].].].].].].].].].].].].].].].].].].].].].].].].].].].].].].].].].].].].].].].].].].].].].].].].].].].].",
"].].].].].].].].].].].].].].].].].].].].].].].].].].].].].].].].].].].].].].].].].].].].].].].].].].].].].].].].].].].].].].].].",
"].].].].].].].].].].].].].].].].].].].].].].].].].].].].].].].].].].].].].].].].].].].].].].].].].].].].].].].].].].].].].].].].",
"].].].].].].].].].].].].].].].].].].].].].].].].].].].].].].].].].].].].].].].].].].].].].].].].].].].].].].].].].].].].].].].].",
"].].].].].].].].].].].].].].].].].].].].].].].].].].].].].].].].].].].].].].].].].].].].].].].].].].].].].].].].].].].].].].].].",
"].].].].].].].].].].].].].].].].].].].].].].].].].].].].].].].].].].].].].].].].].].].].R Y K ].].].].].].].].].].].].].].].].].",
"].].].].].].].].].].].].].i.t.0.1.:.%.X.[ ) Q ].].].].].].].].].].].].].].].].].] ) ~ A E Y L H S n v ].].].].].].].].].].].].].",
"].].].].].].].].].].n.x.f.i.t.0.1.:.%.X.[ ) ! E P G N ].].].].].].].].].].].o.} ] / ~ A E Y L H S M v h j ].].].].].].].].].].].",
"].].].].].].].].].N.n.x.f.i.t.0.1.>.%.X.[ ) ! E P H N v l s t ].].].].].=.$.X.| ] / ~ A E Y L H S M v h j f ].].].].].].].].].].",
"].].].].].].].].F.B.n.x.f.i.r.0.4.:.%.X.[ ) W E P H N v l s t ].].].].:.=.$.X.| ] / ~ A E Y L H S M v h j s i ].].].].].].].].].",
"].].].].].].].T.F.B.n.x.f.i.t.].].].].X.{ ) W E P H N v l d ].].].].2.:.=.$.X.| ] / ~ A T Y K J F M v h j p u ].].].].].].].].].",
"].].].].].].].U.F.B.n.x.f.].].].].].].].].].].].I H N v l ].].].0.6.2.:.=.$.X.} [ ].].].].].].].].].c h j p u r ].].].].].].].].",
"].].].].].].W.T.F.B.n.x.].].].].].].].].].].].].].].].].].].].r.0.6.2.:.=.$.X.].].].].].].].].].].].].z j p u r ].].].].].].].].",
"].].].].].].W.T.F.B.M.].].].].].].].].].].].].].].].].].].].9.e.0.6.2.:.-.].].].].].].].].].].].].].].].j p u r e ].].].].].].].",
"].].].].].].W.T.F.B.M.].].].].].].].].].].].].].].].].].d.i.9.e.0.6.3.].].].].].].].].].].].].].].].].].g s u r w ].].].].].].].",
"].].].].].^.W.T.F.B.M.].].].].].].].].].].].].].].].].g.d.i.9.e.0.].].].].].].].].].].].].].].].].].].].j s u r w ].].].].].].].",
"].].].].].^.W.T.F.B.].].].].].].].].].].].].].].].].x.g.d.i.9.].].].].].].].].].].].].].].].].].].].].].].s u r w ].].].].].].].",
"].].].].].^.W.T.F.B.].].].].].].].].].].].].].].].n.c.g.d.].].].].].].].].].].].].].].].].].].].].].].].].p u r q ].].].].].].].",
"].].].].].^.W.T.F.B.].].].].].].].].].].].].].].V.n.c.].].].].].].].].].].].].].].].].].].].].].].].].].].p u r w ].].].].].].].",
"].].].].].^.W.T.F.B.V.].].].].].].].].].].].J.H.G.].].].].].].].].].].].].].].].].].].].].].].].].].].].g p u r w ].].].].].].].",
"].].].].].].W.T.F.B.M.].].].].].].].].].].7 0 9 ].].].].].].].].].].].].].].].].6 ].].].].].].].].].].].j p u r w ].].].].].].].",
"].].].].].].W.T.F.B.M.].].].].].].].].= . & * @ O o X ].].].].].].].].].o o o o $ # O ].].].].].].].].].g s u r w ].].].].].].].",
"].].].].].].W.T.F.B.M.].].].].].].].].2 O O O o o o o ].].].].].].].].o o o o o O . 3 ].].].].].].].].].j p u r e ].].].].].].].",
"].].].].].].].U.F.B.n.c.].].].].].].].].O o o o o o o + ].].].].].].+ o o o o o O > @.`.].].].].].].].].j s u r ].].].].].].].].",
"].].].].].].].U.F.B.n.z.].].].].].].].].].o o o o o o o ].].].].].].o o o o o o o ].'.(.(.].].].].].].l j s u r ].].].].].].].].",
"].].].].].].].].D.B.n.x.h.].].].].].].].].].o o o o o o o ].].].].o o o o o o o + ].].(.(.].].].].].].z j p u r ].].].].].].].].",
"].].].].].].].].F.B.n.x.f.].].].].].].].].].+ o o o o o o + ].].o o o o o o o + ].].].(.(.(.].].].].].h j p u r ].].].].].].].].",
"].].].].].].].].].N.n.x.f.p.].].].].].].].].].o o o o o o O < ].O o o o o o o ].].].].].(.(.(.].].].].h j p u ].].].].].].].].].",
"].].].].].].].].].V.n.x.f.i.].].].].].].].].].].o o o o o O - : O o o o o o ].].].].].]./.(.(.(.].].].z j p u ].].].].].].].].].",
"].].].].].].].].].].m.x.f.i.8.].].].].].].].].].+ o o o o o O O o o o o o + ].].].].].].].(.(.(.].].].].j p u ].].].].].].].].].",
"].].].].].].].].].].].x.f.i.t.].].].].].].].].].].o o o o o o o o o o o o ].].].].].].].].(.(.(.(.].].].j s i ].].].].].].].].].",
"].].].].].].].].].].].].f.i.r.0.].].].].].].].].].].o o o o o o o o o o ].].].].].].].].].].(.(.(.(.].].].s ].].].].].].].].].].",
"].].].].].].].].g ].].].d.i.t.0.].].].].].].].].].].+ o o o o o o o o o ].].].].].].].].].]./.(.(.(.(.].].].].].].].].].].].].].",
"].].].].].].].].x v ].].].u.t.0.5.].].].].].].].].].].o o o o o o o o ].].].].].].].].].].].].(.(.(.(.].].].].].].].].].].].].].",
"].].].].].].].].M F G ].].].r.0.4.].].].].].].].].].o o o o o o o o o o ].].].].].].].].].].].(.(.(.(.(.].].].].].].].].].].].].",
"].].].].].].].D H K P T ].].].0.1.:.].].].].].].].].o o o o o o o o o o + ].].].].].].].].].].].(.(.(.(.(.].].].].].].].].].].].",
"].].].].].].].L Y R C A ].].].7.1.>.].].].].].].].o o o o o o o o o o o o ].].].].].].].].].].].(.(.(.(.(.(.].].].].].].].].].].",
"].].].].].].].E Z ! ^ / ].].].].3.>.&.].].].].].+ o o o o o o o o o o o o o ].].].].].].].].].].].(.(.(.(.(.].].].].].].].].].].",
"].].].].].].].Q ( _ [ ].].].].].].>.%.].].].].].o o o o o o o o o o o o o o o ].].].].].].].].].]./.(.(.(.(.(.].].].].].].].].].",
"].].].].].]._ ` [  .X.].].].].].].].%.o.].].].o o o o o o o X ].o o o o o o o ].].].].].].].].].].].(.(.(.(.(.].].].].].].].].].",
"].].].].].].| ..o.$.&.].].].].].].].].X.].].+ o o o o o o + ].].+ o o o o o o o ].].].].].].].].].].].(.(.(.(.(.].].].].].].].].",
"].].].].].].*.%.-.:.<.].].].].].].].].o.O.].O o o o o o o ].].].].o o o o o o o o ].].].].].].].].].].(.(.(.(.(.].].].].].].].].",
"].].].].].].;.,.2.5.].].].].].].].].].].8 , O o o o o o + ].].].].].o o o o o o O 5 `.].].].].].].].]./.(.(.(.(./.].].].].].].].",
"].].].].].].1.6.0.w.].].].].].].].].].].% X o o o o o o ].].].].].].+ o o o o o O ; ].].].].].].].].].].!.^./.(.(.].].].].].].].",
"].].].].].0.q.e.y.9.].].].].].].].].].].O o o o o o o ].].].].].].].].O o o o o o O O ].].].].].].].].].T.R.W.~./.].].].].].].].",
"].].].].].r.9.i.s.f.].].].].].].].].].o o o o o o o + ].].].].].].].].4   O o o o o o ].].].].].].].].].S.K.I.Y.W.].].].].].].].",
"].].].].].a.d.j.z.c.].].].].].].].].+ o o o o o o + ].].].].].].].(._.k.1 O o o o o o o ].].].].].].].].C.N.A.D.L.].].].].].].].",
"].].].].].z.x.b.n.V.].].].].].].].].].].].].].].].].].].].].].(.(.(.(.).+.].].].].].].].].].].].].].].].c.v.M.N.B.].].].].].].].",
"].].].].].m.V.N.Z.S.].].].].].].].].].].].].].].].].].].].(.(.(.(.(.(.].].].].].].].].].].].].].].].].].d.j.z.b.n.].].].].].].].",
"].].].].].].A.D.P.U.].].].].].].].].].].].].].].].].].(.(.(.(.(.(.(.].].].].].].].].].].].].].].].].].].9.i.d.h.l.].].].].].].].",
"].].].].].].I.Y.E.!.^.].].].].].].].].].].].].].].].(.(.(.(.(.(.(.].].].].].].].].].].].].].].].].].].6.q.e.8.u.p.].].].].].].].",
"].].].].].].Q.~.^.(.(.(.].].].].].].].].].].].].(.(.(.(.(.(.(.(.].].].].].].].].].].].].].].].].].].].<.1.6.0.w.].].].].].].].].",
"].].].].].]./.(.(.(.(.(.(.].].].].].].].].].(.(.(.(.(.(.(.(.].].].].c m N B ].].].].].].].].].].].].#.&.-.,.2.5.].].].].].].].].",
"].].].].].].].(.(.(.(.(.(.(.(.].].].(.(.(.(.(.(.(.(.(.(.(.].].].u s g l x b M F D H K ].].].].].' ] { ..o.%.-.].].].].].].].].].",
"].].].].].].].].(.(.(.(.(.(.(.(.(.(.(.(.(.(.(.(.(.(.(.(.].].].w w r u a d k h v n B D J L Y R C W ~ ) ` [  .].].].].].].].].].].",
"].].].].].].].].(.(.(.(.(.(.(.(.(.(.(.(.(.(.(.(.(.(.].].].].].w q q w e t i f j l c b N S H K U T E A Q ( ` ].].].].].].].].].].",
"].].].].].].].].].].(.(.(.(.(.(.(.(.(.(.(.(.(.(.(.].].].].].].].].].].w w e y u a g l x v M B G J I Y V ].].].].].].].].].].].].",
"].].].].].].].].].].].(.(.(.(.(.(.(.(.(.(.(.(.].].].].].].].].].].].].].].].].r y u a d k h c n B G ].].].].].].].].].].].].].].",
"].].].].].].].].].].].].].].(.(.(.(.(./.].].].].].].].].].].].].].].].].].].].].].].].].].].].].].].].].].].].].].].].].].].].].",
"].].].].].].].].].].].].].].].].].].].].].].].].].].].].].].].].].].].].].].].].].].].].].].].].].].].].].].].].].].].].].].].].",
"].].].].].].].].].].].].].].].].].].].].].].].].].].].].].].].].].].].].].].].].].].].].].].].].].].].].].].].].].].].].].].].].",
"].].].].].].].].].].].].].].].].].].].].].].].].].].].].].].].].].].].].].].].].].].].].].].].].].].].].].].].].].].].].].].].].",
"].].].].].].].].].].].].].].].].].].].].].].].].].].].].].].].].].].].].].].].].].].].].].].].].].].].].].].].].].].].].].].].].",
"].].].].].].].].].].].].].].].].].].].].].].].].].].].].].].].].].].].].].].].].].].].].].].].].].].].].].].].].].].].].].].].]."
};
