/* XPM */
static char *xcientos32[] = {
/* columns rows colors chars-per-pixel */
"32 32 101 2 ",
"   c #FE3CECD400D2",
".  c #FF05ECEF000E",
"X  c #FFDAECE10001",
"o  c #FFFFEDA30000",
"O  c #FDB3ECFD01DC",
"+  c #F632EBC40914",
"@  c #F652ED7E08A3",
"#  c #F58FED9B0993",
"$  c #EF11EDE4106A",
"%  c #E129EED71DBC",
"&  c #DA21EC7E2545",
"*  c #D65EEF452882",
"=  c #D05FEE112E99",
"-  c #CD72E35D3363",
";  c #B5C7F1F148B0",
":  c #A613ED8F58FC",
">  c #ACDBF27B517C",
",  c #5CF9F7E7A0B8",
"<  c #161589BCFA6F",
"1  c #15DC8AA9FA67",
"2  c #15E08AF6FA96",
"3  c #157C8D62FACE",
"4  c #15338EC0FACF",
"5  c #14DE90D2FACB",
"6  c #14B9919FFAAB",
"7  c #148292C5FAB8",
"8  c #146C9342FAC4",
"9  c #138297BCFAFC",
"0  c #1437942EFAD8",
"q  c #140A9529FACE",
"w  c #13CF9655FADD",
"e  c #13989753FAE5",
"r  c #134D98B4FAF9",
"t  c #131E99B5FAF5",
"y  c #12C59B77FAF4",
"u  c #126F9CEEFAFB",
"i  c #12229E9EFAFA",
"p  c #11F29F70FAFB",
"a  c #0F77AD2FFAFA",
"s  c #0F33AEC8FAFA",
"d  c #0F0FAF7AFAF8",
"f  c #117FA213FAFA",
"g  c #110DA478FAFB",
"h  c #10DEA58FFAFA",
"j  c #10AFA6A3FAF7",
"k  c #101EA9B5FAFA",
"l  c #0FF9AA96FAF6",
"z  c #0FE9AB3CFAFA",
"x  c #0EBAB0EAFAFB",
"c  c #0EA0B147FAFA",
"v  c #0E26B3A0FAF9",
"b  c #0DC5B546FAF7",
"n  c #0D43B7CFFAF9",
"m  c #0D20B8AEFAF8",
"M  c #0CF8B95BFAF8",
"N  c #0C81BBF7FAFF",
"B  c #0C34BD81FAF8",
"V  c #0BDCBF88FB14",
"C  c #0B4FC224FB29",
"Z  c #0B1AC3B9FB40",
"A  c #0B99C0F0FB15",
"S  c #0A02C9B5FBD2",
"D  c #09C7CACDFBBD",
"F  c #099FCB7DFBE5",
"G  c #08DCCEFFFBF2",
"H  c #08A7CFBBFBF7",
"J  c #0779D62BFBFB",
"K  c #0830D204FBF9",
"L  c #080FD316FBFB",
"P  c #07CED4A4FBF8",
"I  c #0792D5E9FBFB",
"U  c #06BDD9D7FBFB",
"Y  c #06A2DAA1FBFD",
"T  c #064CDBEDFBFA",
"R  c #060CDCE0FBFA",
"E  c #0F4CFDDAEE52",
"W  c #0550E0D0FBFB",
"Q  c #050CE1B3FBFE",
"!  c #04AAE443FBF2",
"~  c #047AE4F1FBFB",
"^  c #043CE637FBFA",
"/  c #042EE698FBFA",
"(  c #0418E7A9FBED",
")  c #0377E82BFC7E",
"_  c #0330EC49FBFB",
"`  c #031EECB0FC14",
"'  c #02E7EE06FBF9",
"]  c #02B7EF52FBF1",
"[  c #025AF0E1FBFE",
"{  c #01EBF374FBF6",
"}  c #015EF61AFC00",
"|  c #012BF6DAFBFF",
" . c #010EF7B9FBFE",
".. c #0068FB69FBFD",
"X. c #009FFAA5FC0C",
"o. c #002FFD08FBFF",
"O. c #0023FE3BFC1A",
"+. c #000AFEF5FC08",
"@. c #003AFEEBFCFF",
"#. c #0000FEF1FDAC",
"$. c None",
/* pixels */
"$.$.$.$.$.$.$.$.$.$.$.$.$.$.$.$.$.$.$.$.$.$.$.$.$.$.$.$.$.$.$.$.",
"$.$.$.$.$.$.$.$.$.$.$.$.$.$.$.$.$.$.$.$.$.$.$.$.$.$.$.$.$.$.$.$.",
"$.$.$.$.$.$.$.$.$.$.$.$.$.$.$.$.$.$.$.$.$.$.$.$.$.$.$.$.$.$.$.$.",
"$.$.$.$.$.$.T L S A n d h $.$.$.$.$.$.$.n c z h p t $.$.$.$.$.$.",
"$.$.$.$.` ~ T L S A n s h u 0 $.$.$.Z B n c z h p r 8 $.$.$.$.$.",
"$.$.$.$.' ~ R $.$.$.$.s h u 0 $.G S Z B n $.$.$.i r 8 3 $.$.$.$.",
"$.$.$.} ' ^ $.$.$.$.$.$.$.$.$.J H S Z $.$.$.$.$.$.$.7 3 $.$.$.$.",
"$.$.$.| ' $.$.$.$.$.$.$.$.$.T I H $.$.$.$.$.$.$.$.$.7 3 $.$.$.$.",
"$.$.$.| ' $.$.$.$.$.$.$.$.Q T $.$.$.$.$.$.$.$.$.$.$.6 3 < $.$.$.",
"$.$.$.| ' $.$.$.$.$.$.` ) $.$.$.$.$.$.$.$.$.$.$.$.$.6 3 < $.$.$.",
"$.$.$.| ' $.$.$.$.$.= : & $.$.$.$.$.X # * $.$.$.$.$.7 3 $.$.$.$.",
"$.$.$.} ' / $.$.$.$.O X X . $.$.$.. . X $ , $.$.$.$.7 3 $.$.$.$.",
"$.$.$.$.' ~ $.$.$.$.$.. . . $.$.$.. . . $.@.$.$.$.$.8 3 $.$.$.$.",
"$.$.$.$.` ~ R $.$.$.$.. . .   $.  . . . $.$.+.$.$.9 8 3 $.$.$.$.",
"$.$.$.$.$.! T $.$.$.$.$.. .   +   . . $.$.$.+.+.$.$.7 4 $.$.$.$.",
"$.$.$.$.$.$.T P $.$.$.$.$.. . . . . $.$.$.$.$.+.+.$.5 $.$.$.$.$.",
"$.$.$.$.r $.Y L $.$.$.$.$.. . . . . $.$.$.$.$.+.+.+.$.$.$.$.$.$.",
"$.$.$.$.f j $.K F $.$.$.$.. . . . . $.$.$.$.$.$.+.+.$.$.$.$.$.$.",
"$.$.$.l a x $.$.S $.$.$.. . . . . . . $.$.$.$.$.+.+.+.$.$.$.$.$.",
"$.$.$.b m N $.$.$.C $.$.. . . . . . . . $.$.$.$.$.+.+.+.$.$.$.$.",
"$.$.$.V Z $.$.$.$.$.$.o . . . $.. . . X $.$.$.$.$.+.+.+.$.$.$.$.",
"$.$.$.D G $.$.$.$.$.- . . . $.$.$.X . X % $.$.$.$.$.o.O.$.$.$.$.",
"$.$.$.I U $.$.$.$.$.X . . $.$.$.$.; @ X . X $.$.$.$.{  .X.$.$.$.",
"$.$.$.W ~ $.$.$.$.$.. . $.$.$.$.#.E > X . $.$.$.$.$.( _ ] $.$.$.",
"$.$.$._ [ $.$.$.$.$.$.$.$.$.+.+.+.$.$.$.$.$.$.$.$.$.T W $.$.$.$.",
"$.$.$. ...O.$.$.$.$.$.$.+.+.+.+.$.$.$.$.$.$.$.$.$.D H P $.$.$.$.",
"$.$.$.O.+.+.+.$.$.$.+.+.+.+.+.$.$.e y p $.$.$.$.m V Z S $.$.$.$.",
"$.$.$.$.+.+.+.+.+.+.+.+.+.$.$.$.1 3 6 w y p g k s v M $.$.$.$.$.",
"$.$.$.$.$.+.+.+.+.+.+.+.$.$.$.$.$.$.2 3 5 q t i g l $.$.$.$.$.$.",
"$.$.$.$.$.$.$.$.$.$.$.$.$.$.$.$.$.$.$.$.$.$.$.$.$.$.$.$.$.$.$.$.",
"$.$.$.$.$.$.$.$.$.$.$.$.$.$.$.$.$.$.$.$.$.$.$.$.$.$.$.$.$.$.$.$.",
"$.$.$.$.$.$.$.$.$.$.$.$.$.$.$.$.$.$.$.$.$.$.$.$.$.$.$.$.$.$.$.$."
};
