/* XPM */
static char *xcientos16[] = {
/* columns rows colors chars-per-pixel */
"16 16 59 1 ",
"  c #FE2FECD100DF",
". c #FF09ECEF0007",
"X c #FFDEECEF0004",
"o c #FEE5ECDB00C9",
"O c #FD3FECEA01F4",
"+ c #FB79ED270393",
"@ c #E3C2EF631B77",
"# c #E1C4EC941D75",
"$ c #D922E5A82735",
"% c #D8CFED53263C",
"& c #C271F0EC3C2A",
"* c #4EDAFA61AEF6",
"= c #15428EA6FAB7",
"- c #15128FABFAC4",
"; c #14D9908FFAC2",
": c #149B922AFACF",
"> c #13549634FB50",
", c #14219497FAD4",
"< c #131D99A8FAF5",
"1 c #12CA9B5AFAF4",
"2 c #12709D29FAF2",
"3 c #11CC9D40FB90",
"4 c #11D4A078FAF5",
"5 c #10D8A585FB05",
"6 c #108FA68BFB17",
"7 c #1064A821FAFB",
"8 c #1061A836FAFA",
"9 c #0E4BB2FDFAF9",
"0 c #0E24B3A9FAFA",
"q c #0DDEB4FAFAF7",
"w c #0DBDB5E4FB08",
"e c #0B50C26DFB5A",
"r c #0BACC082FB1F",
"t c #0AC9C527FB70",
"y c #0AB1C5C7FB73",
"u c #0A95C658FB81",
"i c #0A2EC863FB8D",
"p c #090CCD8AFC0A",
"a c #0722D7D4FBEC",
"s c #083BD242FBE9",
"d c #082AD27FFBE3",
"f c #06E5D8F0FBFC",
"g c #06A2DA6EFBF7",
"h c #0668DB9FFBF6",
"j c #0D80E5B5F2B7",
"k c #03E7E84EFBFC",
"l c #03E8E874FBF6",
"z c #0324EC86FBFA",
"x c #027DEDA6FC26",
"c c #02D4EE75FBF3",
"v c #027CF03FFBF8",
"b c #0250F146FBFB",
"n c #0164F604FC03",
"m c #013AF708FC05",
"M c #0020FE10FC02",
"N c #000BFEEEFC13",
"B c #0000FFECFC43",
"V c #0000FEF8FC95",
"C c None",
/* pixels */
"CCCCCCCCCCCCCCCC",
"CCCCyCCCCC08CCCC",
"CCkft94<Crq71:CC",
"CnzCCCCdpCCCC-CC",
"CmcCCCjCCCCCC=CC",
"CCzCC%#CC+&CC-CC",
"CClCCoXC XCCC;CC",
"CCCgCC.O CCBCCCC",
"CC5sCCC..CCCNCCC",
"CC9CCCX...CCNNCC",
"CuiCC$XCXoCCCMCC",
"ChCCCoCC*@OCCvCC",
"CbmCCCCVxCCCCaCC",
"CCNNNVBC;>36weCC",
"CCCNNCCCCC,2CCCC",
"CCCCCCCCCCCCCCCC"
};
